<svg width="205" height="31" viewBox="0 0 205 31" fill="none" xmlns="http://www.w3.org/2000/svg">
<path d="M0.00800014 24V1.6H10.504C13.192 1.6 15.24 2.13333 16.648 3.2C18.056 4.24533 18.76 5.65333 18.76 7.424C18.76 8.61867 18.4827 9.64267 17.928 10.496C17.3733 11.328 16.6267 11.9787 15.688 12.448C14.7707 12.896 13.768 13.12 12.68 13.12L13.256 11.968C14.5147 11.968 15.6453 12.2027 16.648 12.672C17.6507 13.12 18.44 13.7813 19.016 14.656C19.6133 15.5307 19.912 16.6187 19.912 17.92C19.912 19.84 19.176 21.3333 17.704 22.4C16.232 23.4667 14.0453 24 11.144 24H0.00800014ZM4.168 20.736H10.888C12.4453 20.736 13.64 20.48 14.472 19.968C15.304 19.456 15.72 18.6347 15.72 17.504C15.72 16.3947 15.304 15.584 14.472 15.072C13.64 14.5387 12.4453 14.272 10.888 14.272H3.848V11.04H10.056C11.5067 11.04 12.616 10.784 13.384 10.272C14.1733 9.76 14.568 8.992 14.568 7.968C14.568 6.92267 14.1733 6.144 13.384 5.632C12.616 5.12 11.5067 4.864 10.056 4.864H4.168V20.736ZM31.9998 24.224C30.1011 24.224 28.4371 23.8507 27.0078 23.104C25.5998 22.336 24.5011 21.2907 23.7118 19.968C22.9438 18.6453 22.5598 17.1413 22.5598 15.456C22.5598 13.7493 22.9331 12.2453 23.6798 10.944C24.4478 9.62133 25.4931 8.58667 26.8158 7.84C28.1598 7.09333 29.6851 6.72 31.3918 6.72C33.0558 6.72 34.5384 7.08267 35.8398 7.808C37.1411 8.53333 38.1651 9.55733 38.9118 10.88C39.6584 12.2027 40.0318 13.76 40.0318 15.552C40.0318 15.7227 40.0211 15.9147 39.9998 16.128C39.9998 16.3413 39.9891 16.544 39.9678 16.736H25.7278V14.08H37.8558L36.2878 14.912C36.3091 13.9307 36.1064 13.0667 35.6798 12.32C35.2531 11.5733 34.6664 10.9867 33.9198 10.56C33.1944 10.1333 32.3518 9.92 31.3918 9.92C30.4104 9.92 29.5464 10.1333 28.7998 10.56C28.0744 10.9867 27.4984 11.584 27.0718 12.352C26.6664 13.0987 26.4638 13.984 26.4638 15.008V15.648C26.4638 16.672 26.6984 17.5787 27.1678 18.368C27.6371 19.1573 28.2984 19.7653 29.1518 20.192C30.0051 20.6187 30.9864 20.832 32.0958 20.832C33.0558 20.832 33.9198 20.6827 34.6878 20.384C35.4558 20.0853 36.1384 19.616 36.7358 18.976L38.8798 21.44C38.1118 22.336 37.1411 23.0293 35.9678 23.52C34.8158 23.9893 33.4931 24.224 31.9998 24.224ZM49.154 24.224C47.7247 24.224 46.3487 24.0427 45.026 23.68C43.7247 23.296 42.69 22.8373 41.922 22.304L43.458 19.264C44.226 19.7547 45.1433 20.16 46.21 20.48C47.2767 20.8 48.3433 20.96 49.41 20.96C50.6687 20.96 51.5753 20.7893 52.13 20.448C52.706 20.1067 52.994 19.648 52.994 19.072C52.994 18.6027 52.802 18.2507 52.418 18.016C52.034 17.76 51.5327 17.568 50.914 17.44C50.2953 17.312 49.602 17.1947 48.834 17.088C48.0873 16.9813 47.33 16.8427 46.562 16.672C45.8153 16.48 45.1327 16.2133 44.514 15.872C43.8953 15.5093 43.394 15.0293 43.01 14.432C42.626 13.8347 42.434 13.0453 42.434 12.064C42.434 10.976 42.7433 10.0373 43.362 9.248C43.9807 8.43733 44.8447 7.81867 45.954 7.392C47.0847 6.944 48.418 6.72 49.954 6.72C51.106 6.72 52.2687 6.848 53.442 7.104C54.6153 7.36 55.586 7.72267 56.354 8.192L54.818 11.232C54.0073 10.7413 53.186 10.4107 52.354 10.24C51.5433 10.048 50.7327 9.952 49.922 9.952C48.706 9.952 47.7993 10.1333 47.202 10.496C46.626 10.8587 46.338 11.3173 46.338 11.872C46.338 12.384 46.53 12.768 46.914 13.024C47.298 13.28 47.7993 13.4827 48.418 13.632C49.0367 13.7813 49.7193 13.9093 50.466 14.016C51.234 14.1013 51.9913 14.24 52.738 14.432C53.4847 14.624 54.1673 14.8907 54.786 15.232C55.426 15.552 55.938 16.0107 56.322 16.608C56.706 17.2053 56.898 17.984 56.898 18.944C56.898 20.0107 56.578 20.9387 55.938 21.728C55.3193 22.5173 54.434 23.136 53.282 23.584C52.13 24.0107 50.754 24.224 49.154 24.224ZM66.7748 24.224C64.8974 24.224 63.4468 23.744 62.4227 22.784C61.3988 21.8027 60.8868 20.3627 60.8868 18.464V3.136H64.8868V18.368C64.8868 19.1787 65.0894 19.808 65.4948 20.256C65.9214 20.704 66.5081 20.928 67.2548 20.928C68.1508 20.928 68.8974 20.6933 69.4948 20.224L70.6148 23.072C70.1454 23.456 69.5694 23.744 68.8868 23.936C68.2041 24.128 67.5001 24.224 66.7748 24.224ZM58.0708 10.24V7.04H69.4628V10.24H58.0708ZM71.1212 24L81.2013 1.6H85.2973L95.4093 24H91.0573L82.3853 3.808H84.0493L75.4093 24H71.1212ZM75.7613 18.816L76.8813 15.552H88.9773L90.0972 18.816H75.7613ZM97.874 24V0.255999H101.874V24H97.874ZM107.124 24V0.255999H111.124V24H107.124ZM123.702 24.32C121.953 24.32 120.278 24.0747 118.678 23.584C117.078 23.072 115.809 22.4213 114.87 21.632L116.31 18.4C117.206 19.104 118.315 19.6907 119.638 20.16C120.961 20.6293 122.315 20.864 123.702 20.864C124.875 20.864 125.825 20.736 126.55 20.48C127.275 20.224 127.809 19.8827 128.15 19.456C128.491 19.008 128.662 18.5067 128.662 17.952C128.662 17.2693 128.417 16.7253 127.926 16.32C127.435 15.8933 126.795 15.5627 126.006 15.328C125.238 15.072 124.374 14.8373 123.414 14.624C122.475 14.4107 121.526 14.1653 120.566 13.888C119.627 13.5893 118.763 13.216 117.974 12.768C117.206 12.2987 116.577 11.68 116.086 10.912C115.595 10.144 115.35 9.16267 115.35 7.968C115.35 6.752 115.67 5.64267 116.31 4.64C116.971 3.616 117.963 2.80533 119.286 2.208C120.63 1.58933 122.326 1.28 124.374 1.28C125.718 1.28 127.051 1.45067 128.374 1.792C129.697 2.13333 130.849 2.624 131.83 3.264L130.518 6.496C129.515 5.89867 128.481 5.46133 127.414 5.184C126.347 4.88533 125.323 4.736 124.342 4.736C123.19 4.736 122.251 4.87466 121.526 5.152C120.822 5.42933 120.299 5.792 119.958 6.24C119.638 6.688 119.478 7.2 119.478 7.776C119.478 8.45867 119.713 9.01333 120.182 9.44C120.673 9.84533 121.302 10.1653 122.07 10.4C122.859 10.6347 123.734 10.8693 124.694 11.104C125.654 11.3173 126.603 11.5627 127.542 11.84C128.502 12.1173 129.366 12.48 130.134 12.928C130.923 13.376 131.553 13.984 132.022 14.752C132.513 15.52 132.758 16.4907 132.758 17.664C132.758 18.8587 132.427 19.968 131.766 20.992C131.126 21.9947 130.134 22.8053 128.79 23.424C127.446 24.0213 125.75 24.32 123.702 24.32ZM146.195 6.72C147.56 6.72 148.776 6.98667 149.843 7.52C150.931 8.05333 151.784 8.87467 152.403 9.984C153.022 11.072 153.331 12.48 153.331 14.208V24H149.331V14.72C149.331 13.2053 148.968 12.0747 148.243 11.328C147.539 10.5813 146.547 10.208 145.267 10.208C144.328 10.208 143.496 10.4 142.771 10.784C142.046 11.168 141.48 11.744 141.075 12.512C140.691 13.2587 140.499 14.208 140.499 15.36V24H136.499V0.255999H140.499V11.52L139.635 10.112C140.232 9.024 141.096 8.192 142.227 7.616C143.379 7.01867 144.702 6.72 146.195 6.72ZM166.117 24.224C164.367 24.224 162.81 23.8507 161.445 23.104C160.079 22.336 159.002 21.2907 158.213 19.968C157.423 18.6453 157.029 17.1413 157.029 15.456C157.029 13.7493 157.423 12.2453 158.213 10.944C159.002 9.62133 160.079 8.58667 161.445 7.84C162.81 7.09333 164.367 6.72 166.117 6.72C167.887 6.72 169.455 7.09333 170.821 7.84C172.207 8.58667 173.285 9.61067 174.053 10.912C174.842 12.2133 175.237 13.728 175.237 15.456C175.237 17.1413 174.842 18.6453 174.053 19.968C173.285 21.2907 172.207 22.336 170.821 23.104C169.455 23.8507 167.887 24.224 166.117 24.224ZM166.117 20.8C167.098 20.8 167.973 20.5867 168.741 20.16C169.509 19.7333 170.106 19.1147 170.533 18.304C170.981 17.4933 171.205 16.544 171.205 15.456C171.205 14.3467 170.981 13.3973 170.533 12.608C170.106 11.7973 169.509 11.1787 168.741 10.752C167.973 10.3253 167.109 10.112 166.149 10.112C165.167 10.112 164.293 10.3253 163.525 10.752C162.778 11.1787 162.181 11.7973 161.733 12.608C161.285 13.3973 161.061 14.3467 161.061 15.456C161.061 16.544 161.285 17.4933 161.733 18.304C162.181 19.1147 162.778 19.7333 163.525 20.16C164.293 20.5867 165.157 20.8 166.117 20.8ZM188.534 24.224C187.147 24.224 185.878 23.904 184.726 23.264C183.595 22.624 182.688 21.664 182.006 20.384C181.344 19.0827 181.014 17.44 181.014 15.456C181.014 13.4507 181.334 11.808 181.974 10.528C182.635 9.248 183.531 8.29867 184.661 7.68C185.792 7.04 187.083 6.72 188.534 6.72C190.219 6.72 191.702 7.08267 192.982 7.808C194.283 8.53333 195.307 9.54667 196.054 10.848C196.822 12.1493 197.206 13.6853 197.206 15.456C197.206 17.2267 196.822 18.7733 196.054 20.096C195.307 21.3973 194.283 22.4107 192.982 23.136C191.702 23.8613 190.219 24.224 188.534 24.224ZM179.062 30.208V6.912H182.87V10.944L182.742 15.488L183.062 20.032V30.208H179.062ZM188.086 20.8C189.046 20.8 189.899 20.5867 190.646 20.16C191.414 19.7333 192.022 19.1147 192.47 18.304C192.918 17.4933 193.142 16.544 193.142 15.456C193.142 14.3467 192.918 13.3973 192.47 12.608C192.022 11.7973 191.414 11.1787 190.646 10.752C189.899 10.3253 189.046 10.112 188.086 10.112C187.126 10.112 186.262 10.3253 185.494 10.752C184.726 11.1787 184.118 11.7973 183.67 12.608C183.222 13.3973 182.998 14.3467 182.998 15.456C182.998 16.544 183.222 17.4933 183.67 18.304C184.118 19.1147 184.726 19.7333 185.494 20.16C186.262 20.5867 187.126 20.8 188.086 20.8Z" fill="#000753"/>
<path d="M202.279 24.224C201.554 24.224 200.935 23.9787 200.423 23.488C199.911 22.976 199.655 22.336 199.655 21.568C199.655 20.7573 199.911 20.1173 200.423 19.648C200.935 19.1573 201.554 18.912 202.279 18.912C203.004 18.912 203.623 19.1573 204.135 19.648C204.647 20.1173 204.903 20.7573 204.903 21.568C204.903 22.336 204.647 22.976 204.135 23.488C203.623 23.9787 203.004 24.224 202.279 24.224Z" fill="#F1761A"/>
</svg>
